PathFileType	4	(X/Y/Z)	W14_1_OpenSim.trc																																																																																																																						
DataRate	CameraRate	NumFrames	NumMarkers	Units	OrigDataRate	OrigDataStartFrame	OrigNumFrames																																																																																																																		
100	100	8	40	mm	100	1126	3000																																																																																																																		
Frame#	Time	R.ASIS			R.PSIS			S2			L.PSIS			L.ASIS			R.TH1			R.TH2			R.TH3			R.MKnee			R.Knee			R.SH1			R.SH2			R.SH3			R.SH4			R.Ankle			R.MAnkle			R.Heel			R.MT5			R.MT1			L.TH1			L.TH2			L.TH3			L.TH4			L.MKnee			L.Knee			L.SH1			L.SH2			L.SH3			L.Ankle			L.MAnkle			L.Heel			L.MT5			L.MT1			R.Acr			L.Acr			C7			T10			Clav			Sternum			R.Back		
		X1	Y1	Z1	X2	Y2	Z2	X3	Y3	Z3	X4	Y4	Z4	X5	Y5	Z5	X6	Y6	Z6	X7	Y7	Z7	X8	Y8	Z8	X9	Y9	Z9	X10	Y10	Z10	X11	Y11	Z11	X12	Y12	Z12	X13	Y13	Z13	X14	Y14	Z14	X15	Y15	Z15	X16	Y16	Z16	X17	Y17	Z17	X18	Y18	Z18	X19	Y19	Z19	X20	Y20	Z20	X21	Y21	Z21	X22	Y22	Z22	X23	Y23	Z23	X24	Y24	Z24	X25	Y25	Z25	X26	Y26	Z26	X27	Y27	Z27	X28	Y28	Z28	X29	Y29	Z29	X30	Y30	Z30	X31	Y31	Z31	X32	Y32	Z32	X33	Y33	Z33	X34	Y34	Z34	X35	Y35	Z35	X36	Y36	Z36	X37	Y37	Z37	X38	Y38	Z38	X39	Y39	Z39	X40	Y40	Z40
1126	11.25	954.765	1031.9103	-393.7967	761.0264	1036.7196	-472.2279	750.4246	1031.5437	-516.899	752.629	1037.1964	-567.0461	924.7911	1018.3254	-686.3816	1026.5186	738.4739	-369.5594	953.0195	702.5455	-361.1037	999.3536	604.451	-378.9701	1065.9523	508.2719	-508.3078	1072.7582	510.1832	-392.3175	1105.7744	345.705	-393.3673	1119.7779	235.8579	-414.2151	1025.2241	333.894	-378.4578	1044.1296	222.657	-390.8689	1071.8942	73.5622	-405.9425	1112.3846	93.4036	-497.6071	1016.1793	34.3564	-467.0368	1186.952	38.0062	-373.4463	1240.3099	39.4205	-459.2451	888.7529	718.058	-703.9224	868.2776	611.1245	-701.2742	805.6955	729.921	-711.3624	789.6403	621.5247	-700.1237	824.9614	454.9297	-594.8961	805.4477	475.7608	-703.0545	712.4804	374.6293	-722.1829	658.536	436.3921	-711.173	578.6269	361.4811	-706.6749	462.3638	179.059	-717.4982	498.4053	166.0984	-623.8104	397.4117	203.9441	-656.6854	492.3082	66.2707	-736.9278	534.3322	57.9229	-633.7546	892.134	1414.8351	-356.0908	880.4295	1423.2526	-681.8585	829.7943	1463.5446	-521.067	794.3176	1138.1916	-531.9761	967.6058	1367.3966	-525.6732	995.6645	1223.8689	-524.2377	751.8516	1362.2587	-443.9527
1127	11.26	954.2534	1034.4882	-391.3163	760.7092	1038.6512	-471.1328	750.2263	1033.3059	-515.8191	752.5714	1038.7836	-565.9643	925.2995	1020.4856	-684.2209	1024.5427	739.1007	-367.5948	950.5649	704.0208	-359.5467	995.8084	605.4429	-377.7783	1061.4813	508.9329	-507.4116	1068.1237	510.2697	-391.3402	1097.7628	345.078	-392.7881	1109.5763	234.9665	-413.8467	1016.9757	334.8759	-378.0923	1033.5518	223.3138	-390.6827	1058.1151	74.0205	-406.0431	1098.5848	93.4175	-497.8446	1002.2136	34.4653	-466.93	1172.8818	38.0604	-373.2702	1226.3069	39.0986	-459.1349	896.7325	719.2811	-702.389	879.4443	611.7032	-700.4349	813.5256	728.6801	-710.7421	800.5021	619.8062	-700.3041	840.0196	454.3329	-594.7947	820.6804	475.12	-703.5832	725.8235	376.3508	-722.4976	673.9664	439.9969	-711.9705	591.5169	367.8343	-707.2325	469.3271	191.9671	-717.8693	503.3385	176.2389	-623.9872	405.9891	222.6474	-657.6219	489.9986	76.9179	-736.6898	530.1116	63.5782	-633.9398	893.3121	1417.4121	-354.2721	879.5322	1425.9551	-679.7149	829.7072	1465.8276	-518.8106	794.4683	1140.5426	-530.145	967.5715	1369.8978	-524.2018	995.6116	1226.3669	-522.7812	752.5585	1364.4396	-441.0161
1128	11.27	953.5411	1037.076	-388.9487	760.1387	1040.7463	-470.0062	749.7162	1035.2533	-514.6974	752.1606	1040.5633	-564.8499	925.2479	1022.847	-682.3204	1021.806	739.5652	-365.921	947.3113	705.4763	-358.2311	991.2895	606.3374	-376.8066	1055.9224	509.4148	-506.6797	1062.3201	510.1914	-390.5372	1088.7998	344.4551	-392.2873	1098.6921	234.1443	-413.4902	1007.8033	335.7057	-378.0083	1022.2969	223.8966	-390.7006	1044.2575	74.4128	-406.1792	1084.6359	93.4921	-498.0888	988.2248	34.5394	-466.8846	1158.755	38.206	-373.1591	1212.2245	39.0597	-459.0589	904.6471	721.0903	-700.9227	890.6747	612.9464	-699.5231	821.3794	727.9346	-710.1611	811.494	618.6957	-700.3768	855.1246	454.6863	-594.2841	836.1852	475.2365	-703.8589	739.9647	378.5022	-722.4335	690.0215	443.8441	-712.7184	605.3179	374.2488	-707.7276	478.1819	204.8952	-717.8527	509.9705	186.6994	-623.6763	416.5142	240.7112	-658.2208	490.3199	88.2899	-736.0939	528.353	70.067	-634.0371	894.4202	1420.1517	-352.6476	878.3997	1428.8744	-677.7267	829.4805	1468.3592	-516.6832	794.3859	1143.1226	-528.3043	967.3254	1372.5629	-522.9267	995.2333	1228.9805	-521.5411	753.0781	1366.9089	-438.1573
1129	11.28	952.6818	1039.6971	-386.7538	759.3763	1043.0656	-468.8941	748.9671	1037.4432	-513.5818	751.4666	1042.593	-563.7502	924.7138	1025.3948	-680.6919	1018.3779	739.9409	-364.5059	943.3383	706.9708	-357.1132	985.898	607.2076	-375.9955	1049.3957	509.7704	-506.0568	1055.4729	510.0275	-389.8578	1079.0487	343.8885	-391.8383	1087.2529	233.4304	-413.1456	997.8843	336.4271	-378.0177	1010.5298	224.439	-390.7757	1030.3572	74.7261	-406.3163	1070.6144	93.5974	-498.2824	974.2206	34.6042	-466.8696	1144.6012	38.3611	-373.1004	1198.0961	39.1593	-459.0157	912.3152	723.5627	-699.5279	901.7446	614.9506	-698.5643	829.0648	727.7991	-709.5382	822.4019	618.3107	-700.2612	870.1036	456.0163	-593.3878	851.7238	476.2114	-703.8536	754.6287	381.1363	-722.0049	706.3599	447.944	-713.3073	619.7325	380.6412	-708.0967	488.6242	217.3484	-717.4959	518.2493	197.1189	-622.9834	428.549	257.4149	-658.4623	493.4503	99.7478	-735.1846	529.4645	77.1364	-634.0211	895.4281	1423.0244	-351.2124	877.0239	1431.9398	-675.904	829.1183	1471.1066	-514.6858	794.0919	1145.9039	-526.4819	966.8807	1375.3724	-521.8273	994.5883	1231.6981	-520.4969	753.402	1369.6262	-435.3946
1130	11.29	951.7192	1042.3743	-384.7719	758.48	1045.6526	-467.8425	748.0565	1039.9196	-512.5217	750.5729	1044.9209	-562.7109	923.819	1028.1333	-679.3086	1014.3344	740.2852	-363.3035	938.7252	708.5474	-356.1457	979.7291	608.1104	-375.2785	1041.9769	510.0399	-505.4847	1047.6929	509.8408	-389.2393	1068.6516	343.4126	-391.4089	1075.3694	232.8528	-412.8055	987.3633	337.0754	-377.9542	998.3915	224.9608	-390.7826	1016.4269	74.9603	-406.4225	1056.5717	93.7129	-498.3873	960.2082	34.6718	-466.8599	1130.4357	38.4798	-373.0721	1183.9396	39.3058	-458.9921	919.5879	726.7375	-698.2141	912.4718	617.7735	-697.5936	836.4144	728.3365	-708.8178	833.0493	618.7095	-699.9143	884.8388	458.2991	-592.1573	867.102	478.0884	-703.5649	769.5657	384.2781	-721.2624	722.6757	452.2856	-713.6481	634.491	386.9131	-708.2867	500.3159	228.8575	-716.8647	528.0761	207.113	-622.0244	441.5812	272.1043	-658.3623	499.4858	110.6731	-734.0517	533.7576	84.5021	-633.8328	896.3021	1426.0147	-349.9548	875.4045	1435.0962	-674.2487	828.6251	1474.0346	-512.8145	793.6134	1148.8591	-524.7035	966.2566	1378.3091	-520.8782	993.74	1234.5179	-519.6195	753.5316	1372.5458	-432.747
1131	11.3	950.6865	1045.116	-383.0207	757.4949	1048.5217	-466.8887	747.0482	1042.7007	-511.5579	749.561	1047.572	-561.7675	922.7026	1031.0835	-678.114	1009.7532	740.6356	-362.2653	933.5485	710.2316	-355.2877	972.8724	609.0843	-374.5941	1033.7105	510.2492	-504.9117	1039.0785	509.6747	-388.623	1057.7185	343.0424	-390.9663	1063.1258	232.4236	-412.454	976.3423	337.6767	-377.7083	985.9826	225.471	-390.6412	1002.4636	75.1261	-406.4739	1042.5349	93.8282	-498.39	946.1924	34.7451	-466.8396	1116.2642	38.5432	-373.0538	1169.7634	39.45	-458.9714	926.3618	730.6134	-696.9923	922.7278	621.4292	-696.6486	843.3071	729.5579	-707.9739	843.3098	619.8973	-699.3385	899.2521	461.4768	-590.6696	882.1697	480.8548	-703.0151	784.564	387.9141	-720.2812	738.7162	456.8313	-713.6806	649.3663	392.9526	-708.2565	512.9615	239.0263	-716.0277	539.3072	216.3138	-620.8982	455.1345	284.2839	-657.9716	508.421	120.5423	-732.808	541.3779	91.845	-633.4123	897.0106	1429.1161	-348.856	873.5549	1438.3032	-672.7547	828.0093	1477.1063	-511.0609	792.9805	1151.9575	-522.9878	965.4764	1381.3539	-520.0506	992.7491	1237.4419	-518.8747	753.4786	1375.6199	-430.2302
1132	11.31	949.6046	1047.91	-381.5	756.4482	1051.6529	-466.0575	745.984	1045.7723	-510.7169	748.4933	1050.5402	-560.9427	921.4926	1034.271	-677.0383	1004.7083	741.0096	-361.3511	927.8846	712.0338	-354.5052	965.4131	610.1507	-373.8936	1024.6438	510.4139	-504.299	1029.7214	509.5538	-387.9656	1046.3247	342.7789	-390.4805	1050.5757	232.1395	-412.067	964.8831	338.2481	-377.2459	973.3539	225.9736	-390.3275	988.4603	75.24	-406.4606	1028.5089	93.9431	-498.2994	932.1749	34.8242	-466.8036	1102.0865	38.5518	-373.0299	1155.5706	39.573	-458.9395	932.5843	735.1536	-695.8708	932.4399	625.8899	-695.7613	849.6794	731.4351	-707.009	853.1083	621.8428	-698.5787	913.2931	465.4699	-589.022	896.8146	484.4522	-702.2479	799.4601	391.9826	-719.1456	754.2913	461.5068	-713.3804	664.1841	398.6277	-707.9818	526.3662	247.5523	-715.045	551.7867	224.3923	-619.6779	468.8807	293.6704	-657.3628	520.1305	128.9538	-731.5528	552.2643	98.7979	-632.7383	897.5286	1432.324	-347.8898	871.5039	1441.5334	-671.408	827.2841	1480.2827	-509.417	792.2211	1155.1642	-521.3443	964.5672	1384.4834	-519.3138	991.6677	1240.4707	-518.2287	753.2632	1378.8015	-427.8541
1133	11.32	948.4835	1050.7263	-380.1976	755.3478	1054.9924	-465.3605	744.8816	1049.0853	-510.0119	747.402	1053.7852	-560.2469	920.2846	1037.7089	-676.0153	999.2653	741.4053	-360.5337	921.8118	713.9505	-353.7704	957.4317	611.3153	-373.1464	1014.8534	510.544	-503.6252	1019.7081	509.4872	-387.2444	1034.5173	342.6138	-389.9289	1037.7496	231.9845	-411.6173	953.0199	338.799	-376.6043	960.5143	226.4695	-389.8681	974.4159	75.319	-406.3874	1014.4829	94.0632	-498.1378	918.1559	34.909	-466.755	1087.8993	38.5191	-372.9893	1141.3613	39.6735	-458.8882	938.2493	740.2914	-694.8534	941.5806	631.0914	-694.955	855.5223	733.9163	-705.9472	862.4112	624.4928	-697.7078	926.9271	470.1849	-587.3217	910.9517	488.7885	-701.3227	814.1427	396.3743	-717.9338	769.2717	466.1954	-712.7612	678.8226	403.7809	-707.4614	540.444	254.223	-713.9671	565.3812	231.0611	-618.4158	482.696	300.1851	-656.6082	534.3661	135.6216	-730.3483	566.1465	104.9561	-631.8439	897.8429	1435.6296	-347.0238	869.293	1444.7666	-670.1882	826.4667	1483.5214	-507.8784	791.3577	1158.4402	-519.7739	963.5566	1387.6702	-518.6404	990.5345	1243.5957	-517.6542	752.9108	1382.0465	-425.6228
